<svg width="100" height="100" viewBox="0 0 100 100" fill="none" xmlns="http://www.w3.org/2000/svg">
<path d="M60.3775 13.0533L66.315 23.2604L79.2975 21.557L79.7527 32.2267L93.2376 34.9793L88.1318 44.2668L99.7874 50.9994L90.0035 57.2987L97.8145 66.8472L85.0441 69.0691L87.6599 79.7825L74.1112 77.5429L71.0795 87.5687L59.0952 81.2548L50.9402 88.8594L42.5924 79.563L30.7242 83.4315L27.4564 72.76L13.9271 72.2236L16.3043 62.0221L3.45326 57.1735L11.0645 49.2061L1.11368 40.8836L12.6428 36.5278L7.3129 26.1706L20.7665 26.1796L20.979 15.5784L34.0308 19.9507L39.7491 10.9385L50.1422 18.9181L60.3775 13.0533Z" fill="#CD4040"/>
<path d="M18.7824 41.7581L28.286 44.3092L27.5294 47.1378L18.0259 44.5867L18.7824 41.7581ZM33.1268 55.3249C31.906 54.9972 30.8714 54.4378 30.023 53.6468C29.1787 52.8404 28.589 51.8869 28.254 50.7864C27.919 49.6859 27.8854 48.5421 28.1532 47.355L31.7228 48.3132C31.483 49.2097 31.5663 50.0438 31.9727 50.8155C32.3987 51.576 33.0367 52.0703 33.8866 52.2984C34.721 52.5224 35.4769 52.452 36.1542 52.0871C36.8511 51.7109 37.3008 51.1441 37.5033 50.3867C37.7266 49.5521 37.6107 48.8086 37.1558 48.1564C36.705 47.4887 35.9774 47.02 34.973 46.7504L30.0589 45.4313L33.0703 37.1446L42.852 39.7704L42.0707 42.6917L35.1168 40.8251L34.0218 43.7119L36.6642 44.4212C37.8232 44.7323 38.7811 45.2379 39.5379 45.9381C40.3101 46.6424 40.8319 47.4782 41.1031 48.4456C41.3785 49.3976 41.3756 50.3991 41.0945 51.4501C40.8051 52.5321 40.2686 53.4235 39.4849 54.1242C38.7012 54.825 37.7508 55.2823 36.6337 55.4959C35.532 55.7138 34.363 55.6568 33.1268 55.3249ZM48.0268 59.3246C46.5588 58.9305 45.3501 58.2168 44.4009 57.1834C43.4713 56.1386 42.8654 54.8743 42.5832 53.3904C42.3052 51.8911 42.3915 50.299 42.8421 48.6142C43.2927 46.9295 44.0105 45.5152 44.9955 44.3714C45.9846 43.2122 47.1403 42.4208 48.4627 41.9972C49.8046 41.5622 51.2096 41.5418 52.6776 41.9358C54.1302 42.3258 55.329 43.0452 56.2741 44.094C57.2233 45.1275 57.837 46.3939 58.115 47.8932C58.3972 49.3771 58.313 50.9614 57.8623 52.6462C57.4117 54.331 56.6919 55.753 55.7028 56.9122C54.7178 58.0559 53.5543 58.8453 52.2124 59.2802C50.8746 59.6997 49.4794 59.7145 48.0268 59.3246ZM48.9136 56.0092C49.6398 56.2041 50.3411 56.1521 51.0173 55.8532C51.6935 55.5543 52.2879 55.0347 52.8006 54.2943C53.3288 53.558 53.7334 52.6644 54.0146 51.6133C54.2957 50.5623 54.3913 49.5857 54.3013 48.6835C54.2268 47.7855 53.9714 47.0377 53.5349 46.4401C53.0985 45.8425 52.5172 45.4463 51.7909 45.2513C51.0646 45.0563 50.3634 45.1083 49.6872 45.4072C49.011 45.7061 48.4088 46.2237 47.8806 46.9599C47.3679 47.7003 46.971 48.5961 46.6899 49.6471C46.4088 50.6982 46.3054 51.6727 46.3799 52.5707C46.4699 53.4729 46.7331 54.2228 47.1695 54.8203C47.6059 55.4179 48.1873 55.8142 48.9136 56.0092ZM63.4901 54.9521C62.532 54.6949 61.7302 54.256 61.0846 53.6354C60.4432 52.9994 60.013 52.2544 59.7943 51.4005C59.5796 50.5311 59.6004 49.6173 59.8567 48.6589C60.113 47.7006 60.5511 46.8988 61.1709 46.2534C61.7907 45.608 62.535 45.1783 63.4038 44.9642C64.2726 44.7502 65.1861 44.7717 66.1442 45.0289C67.1022 45.2861 67.8963 45.7229 68.5265 46.3393C69.172 46.9599 69.6022 47.7049 69.8168 48.5743C70.0469 49.4478 70.0338 50.3637 69.7775 51.322C69.5212 52.2804 69.0754 53.0801 68.4402 53.7214C67.8245 54.3513 67.0802 54.781 66.2072 55.0105C65.3539 55.2288 64.4482 55.2093 63.4901 54.9521ZM76.8374 48.1478L80.1289 49.0314L63.7293 63.0676L60.4378 62.184L76.8374 48.1478ZM64.2652 52.054C64.8833 52.2199 65.4274 52.1672 65.8975 51.8957C66.3872 51.613 66.7147 51.1625 66.8801 50.5443C67.0455 49.926 66.9846 49.3795 66.6975 48.9049C66.43 48.4189 65.9871 48.093 65.369 47.927C64.7509 47.7611 64.197 47.8195 63.7073 48.1022C63.2218 48.3695 62.8963 48.8122 62.731 49.4305C62.5656 50.0488 62.6244 50.603 62.9074 51.0931C63.1945 51.5677 63.6471 51.888 64.2652 52.054ZM74.4225 66.1866C73.4645 65.9294 72.6626 65.4905 72.0171 64.8699C71.3869 64.2535 70.9646 63.5105 70.7499 62.6412C70.5352 61.7718 70.5561 60.8579 70.8124 59.8996C71.0687 58.9413 71.5047 58.1472 72.1203 57.5173C72.7401 56.8719 73.4767 56.4401 74.3301 56.2219C75.203 55.9923 76.1185 56.0062 77.0766 56.2634C78.0347 56.5205 78.8267 56.9651 79.4527 57.597C80.0983 58.2176 80.5284 58.9626 80.7431 59.8319C80.9773 60.69 80.9663 61.5982 80.71 62.5565C80.4537 63.5148 80.0079 64.3146 79.3726 64.9558C78.7528 65.6012 78.0085 66.0309 77.1397 66.245C76.2863 66.4632 75.3806 66.4437 74.4225 66.1866ZM75.1977 63.2884C75.8158 63.4543 76.3676 63.4037 76.8532 63.1364C77.3428 62.8537 77.6704 62.4032 77.8357 61.785C78.0011 61.1667 77.9402 60.6202 77.6531 60.1456C77.3701 59.6554 76.9196 59.3274 76.3015 59.1615C75.6988 58.9997 75.1527 59.0602 74.663 59.3429C74.1774 59.6101 73.852 60.0529 73.6866 60.6712C73.5213 61.2894 73.5801 61.8436 73.863 62.3338C74.1501 62.8084 74.595 63.1266 75.1977 63.2884Z" fill="white"/>
</svg>
