<svg xmlns="http://www.w3.org/2000/svg" xmlns:xlink="http://www.w3.org/1999/xlink" version="1.1" width="1000" height="1000" viewBox="0 0 1000 1000" xml:space="preserve">
<desc>Created with Fabric.js 3.5.0</desc>
<defs>
</defs>
<rect x="0" y="0" width="100%" height="100%" fill="#ffffff"/>
<g transform="matrix(0.9276 0 0 0.8444 500.0084 485.8571)" id="791307">
<path style="stroke: none; stroke-width: 1; stroke-dasharray: none; stroke-linecap: butt; stroke-dashoffset: 0; stroke-linejoin: miter; stroke-miterlimit: 4; is-custom-font: none; font-file-url: none; fill: rgb(53,140,101); fill-rule: nonzero; opacity: 1;" vector-effect="non-scaling-stroke" transform=" translate(-499.9775, -500.0244)" d="M 688.9 500 L 243.7 934.9 c -12.7 12.4 -12.9 32.8 -0.5 45.5 c 12.4 12.7 32.8 12.9 45.5 0.5 l 467.6 -456.8 c 6.7 -6.6 9.9 -15.4 9.6 -24.1 c 0.3 -8.7 -2.9 -17.5 -9.6 -24.1 L 288.7 19.1 C 276 6.7 255.6 7 243.2 19.7 c -12.4 12.7 -12.2 33 0.5 45.5 L 688.9 500 L 688.9 500 z" stroke-linecap="round"/>
</g>
</svg>