<svg xmlns="http://www.w3.org/2000/svg" xmlns:xlink="http://www.w3.org/1999/xlink" version="1.1" width="1000" height="1000" viewBox="0 0 1000 1000" xml:space="preserve">
<desc>Created with Fabric.js 3.5.0</desc>
<defs>
</defs>
<rect x="0" y="0" width="100%" height="100%" fill="transparent"/>
<g transform="matrix(0.7465 0 0 0.8377 530.5279 517.5248)" id="439776">
<path style="stroke: none; stroke-width: 1; stroke-dasharray: none; stroke-linecap: butt; stroke-dashoffset: 0; stroke-linejoin: miter; stroke-miterlimit: 4; is-custom-font: none; font-file-url: none; fill: rgb(149,157,153); fill-rule: nonzero; opacity: 1;" vector-effect="non-scaling-stroke" transform=" translate(-499.9875, -500)" d="M 990 501.1 L 527.4 964 c -20.7 20.7 -54.4 20.7 -75.1 0 c -20.7 -20.7 -20.7 -54.4 0 -75.1 l 388 -388 L 450.4 111.1 c -20.7 -20.7 -20.7 -54.4 0 -75.1 c 20.7 -20.7 54.4 -20.7 75.1 0 l 43.4 43.4 l -0.3 0.3 L 990 501.1 L 990 501.1 z M 565.2 501.1 L 102.5 964 c -20.7 20.7 -54.4 20.7 -75.1 0 c -20.7 -20.7 -20.7 -54.4 0 -75.1 l 388 -388 L 25.5 111.1 C 4.8 90.4 4.8 56.7 25.5 36 c 20.7 -20.7 54.4 -20.7 75.1 0 l 43.4 43.4 l -0.3 0.3 L 565.2 501.1 L 565.2 501.1 z" stroke-linecap="round"/>
</g>
</svg>