<?xml version="1.0" encoding="iso-8859-1"?>
<!-- Generator: Adobe Illustrator 19.0.0, SVG Export Plug-In . SVG Version: 6.00 Build 0)  -->
<svg version="1.1" id="Layer_1" xmlns="http://www.w3.org/2000/svg" xmlns:xlink="http://www.w3.org/1999/xlink" x="0px" y="0px"
	 viewBox="0 0 512 512" style="enable-background:new 0 0 512 512;" xml:space="preserve">
<path style="fill:#358c65;" d="M231.769,372.791h-68.891c-9.91,0-17.943,8.034-17.943,17.943c0,4.759,1.891,9.323,5.256,12.688
	l93.122,93.122c3.503,3.503,8.096,5.256,12.688,5.256s9.184-1.752,12.688-5.256l93.122-93.122c3.365-3.365,5.256-7.929,5.256-12.688
	c0-9.91-8.034-17.943-17.943-17.943h-68.891V139.209h68.891c9.91,0,17.943-8.034,17.943-17.943c0-4.759-1.891-9.323-5.256-12.688
	l-93.122-93.123c-3.503-3.503-8.096-5.256-12.688-5.256s-9.184,1.752-12.688,5.256l-93.122,93.122
	c-3.365,3.365-5.256,7.929-5.256,12.688c0,9.91,8.034,17.943,17.943,17.943h68.891L231.769,372.791z"/>
<g>
</g>
<g>
</g>
<g>
</g>
<g>
</g>
<g>
</g>
<g>
</g>
<g>
</g>
<g>
</g>
<g>
</g>
<g>
</g>
<g>
</g>
<g>
</g>
<g>
</g>
<g>
</g>
<g>
</g>
<g>
</g>
</svg>
