<svg version="1.2" xmlns="http://www.w3.org/2000/svg" viewBox="0 0 10 11" width="10" height="11">
	<title>compensation-nt-svg</title>
	<style>
		.s0 { fill: none } 
		.s1 { fill: #358c65 } 
		.s2 { fill: none;stroke: #358c65 } 
	</style>
	<path id="Layer" class="s0" d="m-7-6.9h24v24h-24z"/>
	<path id="Layer" class="s1" d="m2 7.2c-0.3 0-0.6-0.2-0.6-0.5 0-0.3 0.3-0.6 0.6-0.6zm6-1.1c0.3 0 0.6 0.3 0.6 0.6 0 0.3-0.3 0.5-0.6 0.5zm-6 0h6v1.1h-6z"/>
	<path id="Layer" class="s1" d="m2 9.1c-0.3 0-0.6-0.2-0.6-0.5 0-0.3 0.3-0.6 0.6-0.6zm6-1.1c0.3 0 0.6 0.3 0.6 0.6 0 0.3-0.3 0.5-0.6 0.5zm-6 0h6v1.1h-6z"/>
	<path id="Layer" class="s2" d="m3.5 4.6c-0.8 0-1.5-0.6-1.5-1.5 0-0.8 0.7-1.5 1.5-1.5 0.8 0 1.5 0.7 1.5 1.5 0 0.9-0.7 1.5-1.5 1.5z"/>
	<path id="Layer" class="s2" d="m6.5 4.6c-0.8 0-1.5-0.6-1.5-1.5 0-0.8 0.7-1.5 1.5-1.5 0.8 0 1.5 0.7 1.5 1.5 0 0.9-0.7 1.5-1.5 1.5z"/>
</svg>